<svg width="100" height="100" viewBox="0 0 100 100" xmlns="http://www.w3.org/2000/svg">
  <rect width="100" height="100" rx="20" fill="#FFECB3"/>
  
  <path d="M20 55 C20 35 33 22 50 22 C67 22 80 35 80 55 C80 75 67 88 50 88 C33 88 20 75 20 55 Z" fill="#795548"/>
  
  <path d="M25 25 L50 12 L75 25 L50 38 Z" fill="#3E2723"/> 
  <rect x="42" y="32" width="16" height="8" fill="#3E2723"/>
  <line x1="75" y1="25" x2="82" y2="45" stroke="#FBC02D" stroke-width="3" stroke-linecap="round"/>
  <circle cx="82" cy="45" r="4" fill="#FBC02D"/>

  <circle cx="38" cy="52" r="10" fill="white"/>
  <circle cx="38" cy="52" r="5" fill="#3E2723"/> 
  <circle cx="62" cy="52" r="10" fill="white"/>
  <circle cx="62" cy="52" r="5" fill="#3E2723"/>
  
  <path d="M46 62 L50 68 L54 62 Z" fill="#FFA726"/>
  
  <rect x="35" y="72" width="30" height="22" rx="3" fill="white" stroke="#D7CCC8" stroke-width="1"/>
  <line x1="40" y1="78" x2="60" y2="78" stroke="#BDBDBD" stroke-width="2" stroke-linecap="round"/>
  <line x1="40" y1="84" x2="55" y2="84" stroke="#BDBDBD" stroke-width="2" stroke-linecap="round"/>

  <circle cx="38" cy="75" r="4" fill="#5D4037"/>
  <circle cx="62" cy="75" r="4" fill="#5D4037"/>
</svg>
